# xmcd
#
# Track frame offsets:
# 150
# 22015
# 52243
# 75384
# 88512
# 100571
# 109865
# 127643
# 149546
# 169527
# 178530
# 194771
# 214443
# 227628
# 261231
# 268284
# 286230
# 305395
# 316123
#
# Disc length: 4408 seconds
#
# Revision: 0
# Processed by: cddbd v1.4PL0 Copyright (c) Steve Scherf et al.
# Submitted via: Audion 3.0.2 (http://www.panic.com/audion/)
#
DISCID=0d113613
DTITLE=divers - Blues1
DYEAR=1900
DGENRE=
TTITLE0=Im so sorry
TTITLE1=Im a poor boy
TTITLE2=Albert King blues
TTITLE3=Dust my broom
TTITLE4=crazy about you baybe
TTITLE5=Albert king blues2
TTITLE6=When you was young
TTITLE7=Laundromat blues
TTITLE8=I just can leave
TTITLE9=blues guitar
TTITLE10=buddy Guy
TTITLE11=Howling wolf
TTITLE12=Red Rooster
TTITLE13=RedHouse Hendrix
TTITLE14=it hurts me too
TTITLE15=The bear
TTITLE16=Im in the mmod
TTITLE17=Love in vain
TTITLE18=Going back to Memphis
EXTD=
EXTT0=
EXTT1=
EXTT2=
EXTT3=
EXTT4=
EXTT5=
EXTT6=
EXTT7=
EXTT8=
EXTT9=
EXTT10=
EXTT11=
EXTT12=
EXTT13=
EXTT14=
EXTT15=
EXTT16=
EXTT17=
EXTT18=
PLAYORDER=
